<?xml version="1.0" encoding="UTF-8" standalone="no"?>
<svg
   xmlns:dc="http://purl.org/dc/elements/1.1/"
   xmlns:cc="http://creativecommons.org/ns#"
   xmlns:rdf="http://www.w3.org/1999/02/22-rdf-syntax-ns#"
   xmlns:svg="http://www.w3.org/2000/svg"
   xmlns="http://www.w3.org/2000/svg"
   xmlns:sodipodi="http://sodipodi.sourceforge.net/DTD/sodipodi-0.dtd"
   xmlns:inkscape="http://www.inkscape.org/namespaces/inkscape"
   aria-hidden="true"
   focusable="false"
   data-prefix="fas"
   data-icon="terminal"
   class="svg-inline--fa fa-terminal fa-w-20"
   role="img"
   viewBox="0 0 640 640"
   version="1.1"
   id="svg4"
   sodipodi:docname="logo_terminal.svg"
   width="640"
   height="640"
   inkscape:version="0.92.1 r15371">
  <metadata
     id="metadata10">
    <rdf:RDF>
      <cc:Work
         rdf:about="">
        <dc:format>image/svg+xml</dc:format>
        <dc:type
           rdf:resource="http://purl.org/dc/dcmitype/StillImage" />
        <dc:title></dc:title>
      </cc:Work>
    </rdf:RDF>
  </metadata>
  <defs
     id="defs8" />
  <sodipodi:namedview
     pagecolor="#ffffff"
     bordercolor="#666666"
     borderopacity="1"
     objecttolerance="10"
     gridtolerance="10"
     guidetolerance="10"
     inkscape:pageopacity="0"
     inkscape:pageshadow="2"
     inkscape:window-width="3838"
     inkscape:window-height="1069"
     id="namedview6"
     showgrid="false"
     inkscape:zoom="0.4609375"
     inkscape:cx="-68.338983"
     inkscape:cy="256"
     inkscape:window-x="1080"
     inkscape:window-y="17"
     inkscape:window-maximized="0"
     inkscape:current-layer="svg4" />
  <path
     d="M 257.98126,334.14238 63.638258,528.48537 c -9.373,9.37301 -24.569,9.37301 -33.941,0 L 7.0292584,505.81838 c -9.357,-9.357 -9.375,-24.52201 -0.04,-33.901 L 161.01126,317.17137 6.9902584,162.42637 c -9.335,-9.37899 -9.317,-24.544 0.04,-33.901 L 29.697258,105.85838 c 9.373,-9.373005 24.569,-9.373005 33.941,0 L 257.98126,300.20137 c 9.373,9.372 9.373,24.568 0,33.94101 z m 382.019,183.02899 v -32 c 0,-13.25499 -10.745,-24 -24,-24 h -304 c -13.255,0 -24,10.74501 -24,24 v 32 c 0,13.255 10.745,24 24,24 h 304 c 13.255,0 24,-10.745 24,-24 z"
     id="path2"
     inkscape:connector-curvature="0"
     style="fill:#364e64;fill-opacity:1" />
</svg>
